<svg fill="none" height="24" viewBox="0 0 24 24" width="24" xmlns="http://www.w3.org/2000/svg"><g clip-rule="evenodd" fill="currentColor" fill-rule="evenodd"><path d="m12.0001 3.5c.1741 0 .3357.09058.4265.23912l4.1746 6.82548c.0736.1203.093.2662.0533.4015-.0397.1354-.1348.2477-.2617.3093l-4.1746 2.0237c-.1378.0668-.2985.0668-.4362 0l-4.1746-2.0237c-.12695-.0616-.22199-.1739-.26169-.3093-.03969-.1353-.02035-.2812.05326-.4015l4.17453-6.82548c.0909-.14854.2524-.23912.4266-.23912zm0 1.45828-3.46039 5.65772 3.46039 1.6775 3.4604-1.6775z"/><path d="m12.0001 20.0503c-.168 0-.3248-.0843-.4173-.2246l-4.17467-6.3254c-.12422-.1882-.10706-.4363.04188-.6057.14895-.1693.39282-.218.59535-.1188l3.95474 1.9369 3.9546-1.9369c.2025-.0992.4464-.0505.5953.1188.149.1694.1661.4175.0419.6057l-4.1745 6.3254c-.0926.1402-.2493.2246-.4173.2246zm0-1.4077 2.7464-4.1615-2.5265 1.2374c-.1388.0679-.3011.0679-.4399 0l-2.52654-1.2375z"/></g></svg>